%TF.GenerationSoftware,KiCad,Pcbnew,10.0.0*%
%TF.CreationDate,2026-04-08T16:35:43-07:00*%
%TF.ProjectId,pathfinder,70617468-6669-46e6-9465-722e6b696361,rev?*%
%TF.SameCoordinates,Original*%
%TF.FileFunction,Copper,L2,Bot*%
%TF.FilePolarity,Positive*%
%FSLAX46Y46*%
G04 Gerber Fmt 4.6, Leading zero omitted, Abs format (unit mm)*
G04 Created by KiCad (PCBNEW 10.0.0) date 2026-04-08 16:35:43*
%MOMM*%
%LPD*%
G01*
G04 APERTURE LIST*
%TA.AperFunction,ComponentPad*%
%ADD10C,1.815000*%
%TD*%
%TA.AperFunction,ComponentPad*%
%ADD11R,1.815000X1.815000*%
%TD*%
%TA.AperFunction,ComponentPad*%
%ADD12C,2.200000*%
%TD*%
%TA.AperFunction,ComponentPad*%
%ADD13C,1.400000*%
%TD*%
%TA.AperFunction,ComponentPad*%
%ADD14C,1.524000*%
%TD*%
%TA.AperFunction,ViaPad*%
%ADD15C,0.600000*%
%TD*%
%TA.AperFunction,Conductor*%
%ADD16C,0.200000*%
%TD*%
G04 APERTURE END LIST*
D10*
%TO.P,D7,A*%
%TO.N,Net-(D7-PadA)*%
X171040000Y-81500000D03*
D11*
%TO.P,D7,C*%
%TO.N,GND*%
X168500000Y-81500000D03*
%TD*%
D10*
%TO.P,D5,A*%
%TO.N,Net-(D5-PadA)*%
X172540000Y-45500000D03*
D11*
%TO.P,D5,C*%
%TO.N,GND*%
X170000000Y-45500000D03*
%TD*%
D10*
%TO.P,D4,A*%
%TO.N,Net-(D4-PadA)*%
X171270000Y-27000000D03*
D11*
%TO.P,D4,C*%
%TO.N,GND*%
X168730000Y-27000000D03*
%TD*%
D12*
%TO.P,SW1,1,1_1*%
%TO.N,button1*%
X157540000Y-23420000D03*
%TO.P,SW1,2,2_2*%
%TO.N,GND*%
X151190000Y-25960000D03*
%TD*%
%TO.P,SW4,1,1_1*%
%TO.N,button4*%
X157540000Y-82500000D03*
%TO.P,SW4,2,2_2*%
%TO.N,GND*%
X151190000Y-85040000D03*
%TD*%
D13*
%TO.P,R4,1*%
%TO.N,Net-(D7-PadA)*%
X167420000Y-88500000D03*
%TO.P,R4,2*%
%TO.N,LED4*%
X172500000Y-88500000D03*
%TD*%
D12*
%TO.P,SW2,1,1_1*%
%TO.N,button2*%
X157500000Y-43000000D03*
%TO.P,SW2,2,2_2*%
%TO.N,GND*%
X151150000Y-45540000D03*
%TD*%
%TO.P,SW3,1,1_1*%
%TO.N,button3*%
X157540000Y-62920000D03*
%TO.P,SW3,2,2_2*%
%TO.N,GND*%
X151190000Y-65460000D03*
%TD*%
D10*
%TO.P,D6,A*%
%TO.N,Net-(D6-PadA)*%
X173270000Y-65000000D03*
D11*
%TO.P,D6,C*%
%TO.N,GND*%
X170730000Y-65000000D03*
%TD*%
D13*
%TO.P,R1,1*%
%TO.N,Net-(D4-PadA)*%
X167690000Y-32500000D03*
%TO.P,R1,2*%
%TO.N,LED1*%
X172770000Y-32500000D03*
%TD*%
%TO.P,R2,1*%
%TO.N,Net-(D6-PadA)*%
X169460000Y-70000000D03*
%TO.P,R2,2*%
%TO.N,LED2*%
X174540000Y-70000000D03*
%TD*%
D14*
%TO.P,U1,1,P26_A0_D0_1*%
%TO.N,button1*%
X187380000Y-40380000D03*
%TO.P,U1,2,P27_A1_D1_2*%
%TO.N,button2*%
X187380000Y-42920000D03*
%TO.P,U1,3,P28_A2_D2_3*%
%TO.N,button3*%
X187380000Y-45460000D03*
%TO.P,U1,4,P29_A3_D3_4*%
%TO.N,LED1*%
X187380000Y-48000000D03*
%TO.P,U1,5,P6_SDA_D4_5*%
%TO.N,LED2*%
X187380000Y-50540000D03*
%TO.P,U1,6,P7_SCL_D5_6*%
%TO.N,LED3*%
X187380000Y-53080000D03*
%TO.P,U1,7,P0_D6_TX_7*%
%TO.N,button4*%
X187380000Y-55620000D03*
%TO.P,U1,8,P1_D7_RX_8*%
%TO.N,LED4*%
X202620000Y-55620000D03*
%TO.P,U1,9,P2_D8_SCK_9*%
%TO.N,unconnected-(U1-P2_D8_SCK-Pad9)*%
X202620000Y-53080000D03*
%TO.P,U1,10,P4_D9_MISO_10*%
%TO.N,unconnected-(U1-P4_D9_MISO-Pad10)*%
X202620000Y-50540000D03*
%TO.P,U1,11,P3_D10_MOSI_11*%
%TO.N,unconnected-(U1-P3_D10_MOSI-Pad11)*%
X202620000Y-48000000D03*
%TO.P,U1,12,3V3_12*%
%TO.N,unconnected-(U1-3V3-Pad12)*%
X202620000Y-45460000D03*
%TO.P,U1,13,GND_13*%
%TO.N,GND*%
X202620000Y-42920000D03*
%TO.P,U1,14,VBUS_14*%
%TO.N,unconnected-(U1-VBUS-Pad14)*%
X202620000Y-40380000D03*
%TD*%
D13*
%TO.P,R3,1*%
%TO.N,Net-(D5-PadA)*%
X168960000Y-51000000D03*
%TO.P,R3,2*%
%TO.N,LED3*%
X174040000Y-51000000D03*
%TD*%
D15*
%TO.N,LED3*%
X186385500Y-53080000D03*
X182246920Y-53746920D03*
%TD*%
%TO.N,button2*%
D16*
X187300000Y-43000000D02*
X187380000Y-42920000D01*
X157500000Y-43000000D02*
X187300000Y-43000000D01*
%TO.N,button3*%
X157540000Y-62920000D02*
X169920000Y-62920000D01*
X169920000Y-62920000D02*
X187380000Y-45460000D01*
%TO.N,LED3*%
X185718580Y-53746920D02*
X186385500Y-53080000D01*
X182246920Y-53746920D02*
X185718580Y-53746920D01*
%TO.N,button4*%
X157540000Y-82500000D02*
X160500000Y-82500000D01*
X160500000Y-82500000D02*
X187380000Y-55620000D01*
%TO.N,LED4*%
X202620000Y-58380000D02*
X202620000Y-55620000D01*
X172500000Y-88500000D02*
X202620000Y-58380000D01*
%TD*%
M02*
