M48
; DRILL file KiCad 10.0.0 date 2026-04-08T16:35:50
; FORMAT={-:-/ absolute / metric / decimal}
; #@! TF.CreationDate,2026-04-08T16:35:50-07:00
; #@! TF.GenerationSoftware,Kicad,Pcbnew,10.0.0
; #@! TF.FileFunction,Plated,1,2,PTH
FMAT,2
METRIC
; #@! TA.AperFunction,Plated,PTH,ViaDrill
T1C0.300
; #@! TA.AperFunction,Plated,PTH,ComponentDrill
T2C0.700
; #@! TA.AperFunction,Plated,PTH,ComponentDrill
T3C0.889
; #@! TA.AperFunction,Plated,PTH,ComponentDrill
T4C1.210
; #@! TA.AperFunction,Plated,PTH,ComponentDrill
T5C1.500
%
G90
G05
T1
X182.247Y-53.747
X186.385Y-53.08
T2
X167.42Y-88.5
X167.69Y-32.5
X168.96Y-51.0
X169.46Y-70.0
X172.5Y-88.5
X172.77Y-32.5
X174.04Y-51.0
X174.54Y-70.0
T3
X187.38Y-40.38
X187.38Y-42.92
X187.38Y-45.46
X187.38Y-48.0
X187.38Y-50.54
X187.38Y-53.08
X187.38Y-55.62
X202.62Y-40.38
X202.62Y-42.92
X202.62Y-45.46
X202.62Y-48.0
X202.62Y-50.54
X202.62Y-53.08
X202.62Y-55.62
T4
X168.5Y-81.5
X168.73Y-27.0
X170.0Y-45.5
X170.73Y-65.0
X171.04Y-81.5
X171.27Y-27.0
X172.54Y-45.5
X173.27Y-65.0
T5
X151.15Y-45.54
X151.19Y-25.96
X151.19Y-65.46
X151.19Y-85.04
X157.5Y-43.0
X157.54Y-23.42
X157.54Y-62.92
X157.54Y-82.5
M30
